<svg id="svg" version="1.1" xmlns="http://www.w3.org/2000/svg" xmlns:xlink="http://www.w3.org/1999/xlink" width="400" height="418.6046511627907" viewBox="0, 0, 400,418.6046511627907"><g id="svgg"><path id="path0" d="M66.864 19.671 C 62.289 20.245,54.646 22.618,49.643 25.020 C 43.535 27.952,40.451 30.060,33.274 36.207 C 25.465 42.896,18.237 56.155,15.507 68.800 L 14.600 73.000 14.600 204.800 L 14.600 336.600 15.736 341.400 C 21.873 367.344,42.604 386.460,67.990 389.583 C 74.715 390.410,245.736 390.138,245.477 389.300 C 245.359 388.915,244.062 385.720,242.595 382.200 C 237.768 370.614,231.535 355.491,215.767 317.106 C 207.205 296.265,200.110 279.219,200.000 279.226 C 199.890 279.233,198.944 281.075,197.899 283.319 C 196.853 285.564,194.581 290.370,192.850 294.000 C 191.119 297.630,187.629 305.010,185.095 310.400 C 182.560 315.790,179.626 322.000,178.576 324.200 C 177.525 326.400,174.463 332.880,171.771 338.600 L 166.877 349.000 120.938 349.113 C 89.464 349.190,74.201 349.089,72.462 348.794 C 64.285 347.406,57.006 340.030,55.631 331.739 C 55.298 329.726,55.207 295.603,55.289 203.000 L 55.400 77.000 56.362 74.281 C 58.793 67.415,65.270 61.650,71.955 60.402 C 74.930 59.847,325.070 59.847,328.045 60.402 C 334.632 61.631,340.609 66.770,343.374 73.581 L 344.600 76.600 344.600 204.400 L 344.600 332.200 343.674 334.800 C 341.149 341.894,334.816 347.473,327.827 348.762 C 326.255 349.052,316.152 349.200,297.928 349.200 L 270.403 349.200 271.145 351.100 C 272.290 354.035,276.987 365.518,279.857 372.400 C 281.279 375.810,283.178 380.400,284.077 382.600 C 284.976 384.800,286.037 387.365,286.434 388.300 L 287.155 390.000 307.888 390.000 C 330.245 390.000,332.897 389.832,339.927 387.972 C 363.975 381.611,382.004 360.911,385.193 336.000 C 385.502 333.593,385.593 294.578,385.506 202.400 L 385.383 72.200 384.497 68.369 C 378.534 42.573,358.651 23.593,333.600 19.783 C 329.115 19.101,72.273 18.993,66.864 19.671 M255.000 85.540 C 253.900 86.148,249.310 88.779,244.800 91.385 C 240.290 93.990,233.270 98.042,229.200 100.388 C 225.130 102.733,217.480 107.147,212.200 110.196 C 206.920 113.245,202.106 116.024,201.503 116.370 C 200.899 116.717,200.410 117.090,200.416 117.200 C 200.421 117.310,208.095 121.810,217.469 127.200 C 226.843 132.590,235.900 137.810,237.596 138.800 C 239.293 139.790,244.304 142.670,248.731 145.200 C 254.655 148.585,256.725 149.959,256.567 150.400 C 256.416 150.823,256.479 150.875,256.779 150.578 C 257.075 150.284,257.173 140.138,257.102 117.294 L 257.000 84.433 255.000 85.540 M138.980 155.951 C 138.771 156.144,134.910 158.419,130.400 161.006 C 125.890 163.594,119.860 167.065,117.000 168.721 C 111.406 171.958,97.216 180.151,88.300 185.292 C 85.275 187.036,82.800 188.517,82.800 188.583 C 82.800 188.649,85.005 189.965,87.700 191.507 C 92.300 194.139,112.406 205.725,123.586 212.186 C 126.344 213.780,130.981 216.460,133.890 218.142 C 136.800 219.824,139.275 221.200,139.390 221.200 C 139.506 221.200,139.600 206.545,139.600 188.633 C 139.600 162.954,139.706 156.024,140.100 155.865 C 140.432 155.731,140.392 155.653,139.980 155.632 C 139.639 155.614,139.189 155.758,138.980 155.951 M249.800 227.692 C 244.080 230.994,234.180 236.703,227.800 240.378 C 205.105 253.453,203.218 254.551,203.308 254.621 C 203.359 254.660,207.720 257.180,213.000 260.221 C 218.280 263.262,227.640 268.654,233.800 272.204 C 239.960 275.753,248.381 280.603,252.512 282.983 C 256.644 285.362,260.110 287.223,260.215 287.119 C 260.319 287.014,260.359 272.250,260.302 254.309 L 260.200 221.690 249.800 227.692 " stroke="none" fill="#4494eb" fill-rule="evenodd"></path><path id="path1" d="M142.806 117.457 C 142.809 135.686,142.944 150.407,143.106 150.171 C 143.268 149.936,147.810 147.210,153.200 144.113 C 158.590 141.017,165.790 136.872,169.200 134.902 C 185.354 125.570,191.331 122.124,195.295 119.856 C 197.657 118.505,199.543 117.252,199.485 117.071 C 199.428 116.890,196.865 115.293,193.790 113.523 C 190.716 111.752,185.320 108.640,181.800 106.607 C 178.280 104.573,171.260 100.526,166.200 97.613 C 161.140 94.699,154.100 90.629,150.556 88.567 C 147.012 86.505,143.817 84.705,143.456 84.566 C 142.851 84.334,142.800 86.895,142.806 117.457 M260.305 188.573 L 260.409 221.545 265.105 218.837 C 267.687 217.347,275.830 212.654,283.200 208.408 C 290.570 204.162,298.670 199.485,301.200 198.014 C 303.730 196.543,308.365 193.851,311.501 192.032 C 314.636 190.214,317.105 188.569,316.987 188.379 C 316.869 188.188,315.384 187.247,313.686 186.287 C 311.073 184.809,293.049 174.415,274.000 163.401 C 263.926 157.577,260.463 155.600,260.333 155.600 C 260.260 155.600,260.247 170.438,260.305 188.573 M139.600 254.386 C 139.600 277.098,139.730 287.200,140.021 287.200 C 140.407 287.200,151.348 280.975,169.200 270.598 C 173.050 268.360,180.848 263.857,186.529 260.590 L 196.857 254.650 194.929 253.505 C 193.868 252.875,186.430 248.571,178.400 243.941 C 157.663 231.984,153.327 229.478,146.963 225.776 C 143.863 223.972,140.938 222.288,140.463 222.034 L 139.600 221.572 139.600 254.386 " stroke="none" fill="#fb084f" fill-rule="evenodd"></path><path id="path2" d="M192.000 121.727 C 187.710 124.215,181.050 128.066,177.200 130.285 C 173.350 132.504,165.700 136.916,160.200 140.090 C 154.700 143.265,148.630 146.748,146.712 147.831 C 144.794 148.914,143.273 149.962,143.332 150.160 C 143.391 150.358,146.941 152.534,151.220 154.995 C 155.499 157.457,166.740 163.940,176.200 169.401 C 185.660 174.862,194.885 180.186,196.699 181.232 L 199.999 183.133 208.499 178.240 C 219.494 171.910,231.701 164.869,240.000 160.071 C 243.630 157.972,248.841 154.964,251.580 153.386 C 254.320 151.808,256.609 150.356,256.668 150.159 C 256.727 149.961,253.149 147.730,248.718 145.200 C 244.286 142.670,239.566 139.955,238.230 139.166 C 231.702 135.314,200.880 117.606,200.376 117.418 C 200.059 117.300,196.290 119.239,192.000 121.727 M139.600 188.757 L 139.600 221.513 146.700 225.624 C 150.605 227.884,155.870 230.934,158.400 232.402 C 160.930 233.869,169.660 238.903,177.800 243.589 C 185.940 248.275,193.458 252.625,194.506 253.255 C 195.554 253.885,196.499 254.400,196.606 254.400 C 196.713 254.400,196.800 239.578,196.800 221.462 L 196.800 188.523 188.100 183.508 C 183.315 180.749,177.150 177.189,174.400 175.597 C 171.650 174.005,165.800 170.627,161.400 168.091 C 157.000 165.555,150.483 161.797,146.917 159.740 C 143.351 157.683,140.246 156.000,140.017 156.000 C 139.731 156.000,139.600 166.297,139.600 188.757 M251.800 160.467 C 247.620 162.900,240.060 167.278,235.000 170.195 C 229.940 173.113,223.550 176.802,220.800 178.394 C 218.050 179.987,212.965 182.912,209.500 184.895 L 203.200 188.500 203.200 221.450 C 203.200 239.573,203.267 254.400,203.349 254.400 C 203.431 254.400,206.176 252.852,209.449 250.960 C 212.722 249.067,220.800 244.409,227.400 240.607 C 234.000 236.806,244.080 230.994,249.800 227.693 L 260.200 221.690 260.302 188.845 C 260.384 162.691,260.302 156.004,259.902 156.022 C 259.626 156.034,255.980 158.034,251.800 160.467 " stroke="none" fill="#0c1516" fill-rule="evenodd"></path><path id="path3" d="M0.000 209.200 L 0.000 418.400 200.000 418.400 L 400.000 418.400 400.000 209.200 L 400.000 0.000 200.000 0.000 L 0.000 0.000 0.000 209.200 M336.800 19.914 C 361.889 25.948,379.964 44.226,384.897 68.549 L 385.800 73.000 385.793 205.000 L 385.786 337.000 384.743 341.400 C 378.720 366.820,359.334 385.386,334.450 389.568 C 327.397 390.753,286.940 390.865,286.526 389.700 C 286.389 389.315,285.609 387.380,284.792 385.400 C 283.975 383.420,282.535 379.910,281.592 377.600 C 280.649 375.290,279.525 372.601,279.094 371.625 C 278.664 370.648,278.075 369.208,277.787 368.425 C 277.499 367.641,276.062 364.120,274.595 360.600 C 273.127 357.080,271.785 353.739,271.613 353.177 C 271.441 352.614,271.007 351.588,270.650 350.896 C 270.292 350.205,270.000 349.451,270.000 349.220 C 270.000 348.931,278.698 348.800,297.936 348.800 C 324.602 348.800,326.015 348.763,329.013 347.997 C 335.736 346.277,341.406 340.840,343.482 334.123 C 344.616 330.454,344.598 78.696,343.463 75.000 C 341.440 68.405,336.295 63.352,329.458 61.245 L 326.716 60.400 199.979 60.400 L 73.241 60.400 70.056 61.406 C 63.728 63.405,58.453 68.686,56.621 74.855 C 55.737 77.832,55.676 330.546,56.558 333.860 C 58.344 340.568,64.076 346.180,70.975 347.974 C 74.095 348.786,74.960 348.800,120.288 348.800 L 166.425 348.800 169.048 343.300 C 176.220 328.263,179.042 322.313,181.999 316.000 C 183.494 312.810,185.967 307.590,187.496 304.400 C 190.654 297.810,193.309 292.202,196.964 284.400 C 198.356 281.430,199.730 279.000,200.019 279.000 C 200.478 279.000,202.210 282.939,207.583 296.200 C 208.207 297.740,210.021 302.150,211.613 306.000 C 214.658 313.361,216.178 317.067,218.585 323.000 C 219.388 324.980,220.290 327.140,220.588 327.800 C 220.886 328.460,222.036 331.250,223.142 334.000 C 224.248 336.750,225.635 340.080,226.224 341.400 C 226.814 342.720,227.622 344.700,228.021 345.800 C 228.421 346.900,229.589 349.780,230.618 352.200 C 232.617 356.899,234.585 361.666,236.400 366.200 C 237.890 369.923,239.944 374.909,242.004 379.800 C 244.387 385.460,246.000 389.588,246.000 390.025 C 246.000 390.257,212.504 390.400,158.250 390.400 C 59.893 390.400,66.062 390.575,57.000 387.524 C 40.321 381.909,27.500 370.631,20.024 355.000 C 17.821 350.394,15.951 344.801,14.919 339.732 C 13.804 334.255,13.801 75.008,14.916 69.400 C 19.855 44.548,39.145 24.833,63.200 20.052 C 65.510 19.593,67.760 19.144,68.200 19.054 C 68.640 18.963,128.400 18.914,201.000 18.945 L 333.000 19.000 336.800 19.914 M146.643 86.063 C 148.599 87.197,151.190 88.699,152.400 89.400 C 153.610 90.101,159.910 93.732,166.400 97.469 C 172.890 101.205,181.890 106.394,186.400 108.998 C 190.910 111.602,195.770 114.406,197.200 115.229 L 199.800 116.726 202.200 115.425 C 204.643 114.101,208.286 112.034,212.600 109.524 C 219.796 105.338,233.812 97.232,237.200 95.298 C 241.868 92.633,254.023 85.587,255.200 84.864 C 255.970 84.390,256.826 84.002,257.102 84.001 C 257.502 84.000,257.584 90.790,257.502 117.297 L 257.400 150.593 255.925 151.397 C 254.602 152.117,251.816 153.722,244.700 157.862 C 242.356 159.226,240.064 160.551,234.900 163.528 C 233.305 164.448,230.785 165.901,229.300 166.758 C 225.586 168.901,213.376 175.974,206.563 179.928 C 199.143 184.235,202.958 185.428,178.200 171.063 C 174.020 168.638,169.520 166.042,168.200 165.295 C 166.880 164.548,164.630 163.256,163.200 162.424 C 161.770 161.593,159.340 160.195,157.800 159.319 C 156.260 158.443,152.871 156.482,150.268 154.963 C 147.665 153.443,144.875 151.838,144.068 151.397 L 142.600 150.593 142.497 117.797 C 142.402 87.830,142.451 84.000,142.930 84.000 C 143.015 84.000,144.686 84.928,146.643 86.063 M143.903 157.464 C 146.047 158.709,148.880 160.356,150.200 161.124 C 151.520 161.892,153.770 163.186,155.200 164.000 C 156.630 164.814,158.970 166.167,160.400 167.007 C 161.830 167.847,164.080 169.149,165.400 169.899 C 166.720 170.650,168.970 171.939,170.400 172.764 C 171.830 173.589,173.900 174.770,175.000 175.389 C 176.100 176.008,177.478 176.849,178.062 177.257 C 178.646 177.666,179.234 178.000,179.369 178.000 C 179.504 178.000,180.736 178.676,182.107 179.501 C 183.478 180.327,187.433 182.622,190.896 184.601 L 197.192 188.200 197.196 221.404 L 197.200 254.608 196.300 255.176 C 195.805 255.489,194.410 256.314,193.200 257.010 C 181.767 263.585,176.585 266.579,164.600 273.532 C 161.740 275.191,158.573 277.010,157.563 277.574 C 156.553 278.138,152.211 280.625,147.915 283.100 C 143.619 285.575,139.990 287.600,139.852 287.600 C 139.713 287.600,139.600 272.862,139.600 254.849 C 139.600 229.135,139.493 222.009,139.100 221.686 C 138.825 221.460,136.170 219.881,133.200 218.178 C 130.230 216.475,126.810 214.509,125.600 213.808 C 124.390 213.108,119.710 210.411,115.200 207.817 C 79.124 187.061,82.014 188.849,83.088 187.949 C 83.700 187.436,89.219 184.203,94.600 181.206 C 95.480 180.716,96.380 180.180,96.600 180.015 C 96.820 179.850,97.990 179.172,99.200 178.509 C 100.410 177.845,103.560 176.048,106.200 174.516 C 108.840 172.984,113.430 170.321,116.400 168.598 C 119.370 166.874,122.970 164.802,124.400 163.993 C 125.830 163.184,129.790 160.885,133.200 158.884 C 140.594 154.545,139.199 154.730,143.903 157.464 M262.294 156.367 C 264.083 157.462,284.293 169.151,290.000 172.391 C 291.430 173.202,296.020 175.842,300.200 178.257 C 304.380 180.671,309.913 183.865,312.495 185.354 C 315.078 186.843,317.285 188.213,317.400 188.399 C 317.644 188.795,316.228 189.666,303.400 197.014 C 298.120 200.038,292.090 203.504,290.000 204.715 C 279.598 210.743,270.737 215.863,268.400 217.198 C 266.970 218.014,264.720 219.301,263.400 220.058 L 261.000 221.434 260.898 254.331 C 260.786 290.360,260.917 288.568,258.497 286.959 C 257.894 286.558,256.860 285.937,256.200 285.579 C 255.540 285.221,250.230 282.171,244.400 278.801 C 231.266 271.209,230.639 270.847,224.000 266.999 C 214.988 261.775,209.442 258.572,208.600 258.103 C 208.160 257.857,206.675 257.001,205.300 256.199 L 202.800 254.742 202.800 221.598 L 202.800 188.454 203.900 187.700 C 204.505 187.285,207.160 185.717,209.800 184.216 C 212.440 182.715,215.410 180.993,216.400 180.390 C 217.390 179.786,219.010 178.844,220.000 178.296 C 220.990 177.747,222.970 176.619,224.400 175.789 C 225.830 174.959,228.170 173.614,229.600 172.800 C 231.030 171.986,233.325 170.663,234.700 169.860 C 236.075 169.057,238.325 167.743,239.700 166.940 C 241.075 166.137,243.370 164.817,244.800 164.008 C 249.858 161.144,258.211 156.279,258.989 155.743 C 260.046 155.015,260.104 155.026,262.294 156.367 " stroke="none" fill="#f3f3f3" fill-rule="evenodd"></path><path id="path4" d="M66.826 19.252 C 63.759 19.764,63.764 20.061,66.832 19.701 C 70.036 19.325,330.108 19.298,333.400 19.673 C 335.479 19.910,335.640 19.884,334.600 19.478 C 333.109 18.896,70.291 18.674,66.826 19.252 M57.462 21.447 C 55.736 22.003,54.389 22.522,54.467 22.601 C 54.546 22.679,56.318 22.227,58.405 21.595 C 60.492 20.962,61.840 20.444,61.400 20.441 C 60.960 20.439,59.188 20.892,57.462 21.447 M341.600 21.610 C 343.690 22.250,345.490 22.775,345.600 22.775 C 346.287 22.777,343.921 21.807,341.671 21.163 C 337.450 19.956,337.392 20.320,341.600 21.610 M350.368 24.984 C 363.592 31.464,373.959 41.875,379.746 54.486 C 380.683 56.529,381.665 58.650,381.927 59.200 L 382.404 60.200 382.161 59.200 C 379.008 46.247,359.530 26.309,346.800 23.005 C 346.250 22.863,347.856 23.753,350.368 24.984 M47.774 25.448 C 45.808 26.465,43.930 27.552,43.600 27.864 C 43.127 28.311,51.321 24.270,51.967 23.737 C 52.738 23.101,50.718 23.926,47.774 25.448 M40.993 29.470 C 31.133 36.094,22.313 47.233,18.131 58.346 C 17.601 59.752,17.237 60.970,17.320 61.053 C 17.403 61.137,17.972 59.899,18.584 58.302 C 21.441 50.845,28.393 40.388,33.274 36.207 C 37.398 32.675,39.260 31.173,40.900 30.056 C 42.532 28.944,43.121 28.400,42.693 28.400 C 42.634 28.400,41.869 28.882,40.993 29.470 M136.500 60.300 C 171.425 60.356,228.575 60.356,263.500 60.300 C 298.425 60.244,269.850 60.198,200.000 60.198 C 130.150 60.198,101.575 60.244,136.500 60.300 M68.800 61.332 C 63.889 63.370,55.964 70.898,57.311 72.245 C 57.439 72.373,57.933 71.715,58.409 70.782 C 60.420 66.841,65.243 62.947,70.037 61.395 C 71.667 60.867,72.550 60.432,72.000 60.427 C 71.450 60.423,70.010 60.830,68.800 61.332 M329.800 61.346 C 331.340 61.847,333.050 62.479,333.600 62.751 C 334.540 63.215,334.553 63.207,333.824 62.622 C 332.802 61.804,329.007 60.395,327.885 60.418 C 327.398 60.428,328.260 60.846,329.800 61.346 M382.812 61.696 C 382.805 61.858,383.163 63.316,383.608 64.935 C 384.052 66.555,384.665 69.482,384.969 71.440 C 385.273 73.398,385.538 74.370,385.557 73.600 C 385.600 71.871,383.854 63.173,383.259 62.149 C 383.020 61.737,382.819 61.533,382.812 61.696 M16.249 63.900 C 15.332 66.733,14.328 72.628,14.511 74.104 C 14.669 75.376,14.673 75.372,14.736 73.901 C 14.802 72.362,16.506 63.952,17.006 62.700 C 17.160 62.315,17.191 62.000,17.075 62.000 C 16.959 62.000,16.587 62.855,16.249 63.900 M337.170 65.457 C 338.583 66.739,340.426 68.871,341.266 70.194 C 342.105 71.517,342.794 72.406,342.796 72.169 C 342.808 70.793,337.533 64.593,335.473 63.562 C 334.993 63.322,335.756 64.174,337.170 65.457 M56.127 74.861 C 55.238 77.476,54.748 326.409,55.621 331.679 C 56.521 337.107,60.411 342.927,65.189 345.993 C 68.126 347.878,68.102 347.408,65.161 345.435 C 60.826 342.527,57.771 338.417,56.558 333.860 C 55.706 330.661,55.733 77.814,56.585 74.982 C 57.388 72.315,57.025 72.219,56.127 74.861 M343.001 73.352 C 343.119 73.765,343.436 74.935,343.707 75.952 C 344.595 79.283,344.407 331.601,343.515 334.181 C 343.138 335.271,342.900 336.234,342.987 336.321 C 344.531 337.865,345.935 85.519,344.428 77.366 C 344.219 76.236,343.764 74.701,343.418 73.956 C 343.072 73.210,342.884 72.938,343.001 73.352 M385.798 204.600 C 385.798 275.880,385.844 304.980,385.900 269.268 C 385.956 233.555,385.956 175.235,385.900 139.668 C 385.844 104.100,385.798 133.320,385.798 204.600 M14.198 204.600 C 14.198 275.440,14.244 304.360,14.300 268.868 C 14.356 233.375,14.356 175.415,14.300 140.068 C 14.244 104.720,14.198 133.760,14.198 204.600 M142.667 84.267 C 142.520 84.413,142.400 99.343,142.400 117.444 L 142.400 150.355 143.289 150.977 C 143.778 151.320,144.363 151.593,144.589 151.584 C 144.815 151.575,144.505 151.299,143.900 150.971 L 142.800 150.374 142.800 117.344 C 142.800 87.657,142.863 84.339,143.421 84.553 C 143.777 84.689,143.937 84.622,143.797 84.395 C 143.514 83.938,143.049 83.885,142.667 84.267 M255.200 84.864 C 254.023 85.587,241.868 92.633,237.200 95.298 C 235.195 96.443,223.713 103.073,219.000 105.807 C 216.800 107.084,213.920 108.742,212.600 109.493 C 210.196 110.860,208.520 112.149,210.400 111.185 C 211.419 110.662,236.865 96.007,250.000 88.378 C 252.530 86.909,255.185 85.408,255.900 85.043 L 257.200 84.379 257.200 117.377 L 257.200 150.374 256.100 150.971 C 255.495 151.299,255.185 151.575,255.411 151.584 C 255.637 151.593,256.222 151.320,256.711 150.977 L 257.600 150.355 257.600 117.177 C 257.600 90.901,257.496 84.000,257.100 84.001 C 256.825 84.002,255.970 84.390,255.200 84.864 M206.800 112.866 C 201.383 115.947,199.803 116.727,199.415 116.512 C 199.187 116.386,199.211 116.511,199.469 116.791 C 199.881 117.237,209.200 112.419,209.200 111.760 C 209.200 111.509,209.127 111.542,206.800 112.866 M145.401 152.002 C 145.669 152.436,148.000 153.734,148.000 153.450 C 148.000 153.356,147.359 152.901,146.576 152.439 C 145.793 151.977,145.264 151.780,145.401 152.002 M148.600 153.881 C 148.820 154.108,149.900 154.797,151.000 155.413 C 152.100 156.028,152.820 156.346,152.600 156.119 C 152.380 155.892,151.300 155.203,150.200 154.587 C 149.100 153.972,148.380 153.654,148.600 153.881 M249.300 154.842 C 248.145 155.515,247.200 156.158,247.200 156.271 C 247.200 156.493,250.757 154.515,251.380 153.947 C 252.058 153.328,251.442 153.593,249.300 154.842 M133.200 158.853 C 129.790 160.837,126.820 162.647,126.600 162.876 C 126.008 163.491,127.954 162.449,134.188 158.812 C 139.176 155.903,139.886 155.599,140.788 155.983 C 141.740 156.388,141.754 156.377,141.024 155.807 C 139.908 154.935,139.991 154.902,133.200 158.853 M258.296 156.150 C 256.044 157.534,255.915 157.905,258.127 156.639 C 259.186 156.032,260.321 155.638,260.648 155.763 C 260.982 155.891,261.135 155.818,260.997 155.595 C 260.626 154.995,259.948 155.134,258.296 156.150 M154.600 157.406 C 155.495 158.141,158.827 159.903,158.200 159.310 C 157.980 159.102,156.900 158.441,155.800 157.841 C 154.700 157.241,154.160 157.045,154.600 157.406 M244.296 157.750 C 242.375 158.931,241.838 159.489,243.400 158.681 C 244.654 158.033,246.345 156.826,246.000 156.825 C 245.890 156.825,245.123 157.241,244.296 157.750 M145.000 158.290 C 145.220 158.500,146.120 159.076,147.000 159.570 C 147.880 160.065,148.240 160.170,147.800 159.804 C 146.906 159.061,144.372 157.691,145.000 158.290 M160.200 160.596 C 161.094 161.339,163.628 162.709,163.000 162.110 C 162.780 161.900,161.880 161.324,161.000 160.830 C 160.120 160.335,159.760 160.230,160.200 160.596 M238.696 160.950 C 236.775 162.131,236.238 162.689,237.800 161.881 C 239.054 161.233,240.745 160.026,240.400 160.025 C 240.290 160.025,239.523 160.441,238.696 160.950 M149.800 161.090 C 150.020 161.300,150.920 161.876,151.800 162.370 C 152.680 162.865,153.040 162.970,152.600 162.604 C 151.706 161.861,149.172 160.491,149.800 161.090 M248.500 161.826 C 247.565 162.387,246.800 162.940,246.800 163.055 C 246.800 163.271,249.499 161.738,250.180 161.136 C 250.867 160.528,250.227 160.791,248.500 161.826 M233.896 163.750 C 231.975 164.931,231.438 165.489,233.000 164.681 C 234.254 164.033,235.945 162.826,235.600 162.825 C 235.490 162.825,234.723 163.241,233.896 163.750 M123.800 164.337 C 122.700 164.955,119.370 166.871,116.400 168.595 C 113.430 170.320,108.840 172.974,106.200 174.493 C 103.560 176.013,101.220 177.445,101.000 177.677 C 100.430 178.277,101.705 177.584,109.600 173.005 C 113.450 170.772,118.715 167.725,121.300 166.233 C 125.291 163.930,126.450 163.167,125.900 163.207 C 125.845 163.211,124.900 163.720,123.800 164.337 M165.418 163.629 C 165.677 164.048,168.800 165.723,168.800 165.442 C 168.800 165.347,167.986 164.813,166.991 164.257 C 165.995 163.701,165.288 163.418,165.418 163.629 M243.300 164.812 C 242.145 165.474,241.200 166.110,241.200 166.225 C 241.200 166.443,244.721 164.514,245.380 163.934 C 246.081 163.318,245.415 163.599,243.300 164.812 M155.400 164.290 C 155.620 164.500,156.520 165.076,157.400 165.570 C 158.280 166.065,158.640 166.170,158.200 165.804 C 157.306 165.061,154.772 163.691,155.400 164.290 M170.600 166.596 C 171.494 167.339,174.028 168.709,173.400 168.110 C 173.180 167.900,172.280 167.324,171.400 166.830 C 170.520 166.335,170.160 166.230,170.600 166.596 M228.296 166.950 C 226.375 168.131,225.838 168.689,227.400 167.881 C 228.654 167.233,230.345 166.026,230.000 166.025 C 229.890 166.025,229.123 166.441,228.296 166.950 M160.200 167.090 C 160.420 167.300,161.320 167.876,162.200 168.370 C 163.080 168.865,163.440 168.970,163.000 168.604 C 162.106 167.861,159.572 166.491,160.200 167.090 M238.100 167.826 C 237.165 168.387,236.400 168.940,236.400 169.055 C 236.400 169.271,239.099 167.738,239.780 167.136 C 240.467 166.528,239.827 166.791,238.100 167.826 M175.000 169.081 C 175.220 169.308,176.300 169.997,177.400 170.613 C 178.500 171.228,179.220 171.546,179.000 171.319 C 178.780 171.092,177.700 170.403,176.600 169.787 C 175.500 169.172,174.780 168.854,175.000 169.081 M233.900 170.229 C 232.405 171.040,232.496 171.378,234.000 170.600 C 234.660 170.259,235.200 169.894,235.200 169.790 C 235.200 169.532,235.157 169.547,233.900 170.229 M165.600 170.150 C 165.600 170.244,166.241 170.699,167.024 171.161 C 167.807 171.623,168.336 171.820,168.199 171.598 C 167.931 171.164,165.600 169.866,165.600 170.150 M179.600 171.779 C 179.600 171.889,180.140 172.259,180.800 172.600 C 181.460 172.941,182.000 173.131,182.000 173.021 C 182.000 172.911,181.460 172.541,180.800 172.200 C 180.140 171.859,179.600 171.669,179.600 171.779 M218.100 172.842 C 216.945 173.515,216.000 174.158,216.000 174.271 C 216.000 174.493,219.557 172.515,220.180 171.947 C 220.858 171.328,220.242 171.593,218.100 172.842 M170.600 173.090 C 170.820 173.300,171.720 173.876,172.600 174.370 C 173.480 174.865,173.840 174.970,173.400 174.604 C 172.506 173.861,169.972 172.491,170.600 173.090 M227.700 173.826 C 226.765 174.387,226.000 174.940,226.000 175.055 C 226.000 175.271,228.699 173.738,229.380 173.136 C 230.067 172.528,229.427 172.791,227.700 173.826 M213.300 175.642 C 212.145 176.315,211.200 176.958,211.200 177.071 C 211.200 177.293,214.757 175.315,215.380 174.747 C 216.058 174.128,215.442 174.393,213.300 175.642 M185.800 175.396 C 186.694 176.139,189.228 177.509,188.600 176.910 C 188.380 176.700,187.480 176.124,186.600 175.630 C 185.720 175.135,185.360 175.030,185.800 175.396 M222.900 176.626 C 221.965 177.187,221.200 177.740,221.200 177.855 C 221.200 178.071,223.899 176.538,224.580 175.936 C 225.267 175.328,224.627 175.591,222.900 176.626 M190.200 177.881 C 190.420 178.108,191.500 178.797,192.600 179.413 C 193.700 180.028,194.420 180.346,194.200 180.119 C 193.980 179.892,192.900 179.203,191.800 178.587 C 190.700 177.972,189.980 177.654,190.200 177.881 M97.725 179.331 C 94.768 181.139,94.558 181.575,97.400 180.005 C 99.947 178.599,100.819 177.979,100.180 178.031 C 99.971 178.047,98.866 178.632,97.725 179.331 M180.800 178.979 C 180.800 179.089,181.340 179.459,182.000 179.800 C 182.660 180.141,183.200 180.331,183.200 180.221 C 183.200 180.111,182.660 179.741,182.000 179.400 C 181.340 179.059,180.800 178.869,180.800 178.979 M206.700 179.429 C 205.205 180.240,205.296 180.578,206.800 179.800 C 207.460 179.459,208.000 179.094,208.000 178.990 C 208.000 178.732,207.957 178.747,206.700 179.429 M217.300 179.826 C 216.365 180.387,215.600 180.940,215.600 181.055 C 215.600 181.271,218.299 179.738,218.980 179.136 C 219.667 178.528,219.027 178.791,217.300 179.826 M194.800 180.579 C 194.800 180.689,195.340 181.059,196.000 181.400 C 196.660 181.741,197.200 181.931,197.200 181.821 C 197.200 181.711,196.660 181.341,196.000 181.000 C 195.340 180.659,194.800 180.469,194.800 180.579 M202.600 181.807 C 201.280 182.568,200.358 183.192,200.551 183.195 C 200.973 183.201,205.200 180.815,205.200 180.571 C 205.200 180.312,205.171 180.326,202.600 181.807 M89.200 184.213 C 82.455 188.174,82.192 188.372,82.862 188.995 C 83.158 189.270,88.800 192.605,95.400 196.407 C 102.000 200.208,110.280 204.977,113.800 207.004 C 120.877 211.081,122.394 211.894,121.800 211.293 C 121.455 210.944,110.171 204.401,89.000 192.273 C 85.920 190.509,83.249 188.935,83.064 188.777 C 82.880 188.618,85.147 187.114,88.104 185.433 C 93.587 182.315,95.312 181.205,94.600 181.252 C 94.380 181.266,91.950 182.599,89.200 184.213 M185.600 181.779 C 185.600 181.889,186.140 182.259,186.800 182.600 C 187.460 182.941,188.000 183.131,188.000 183.021 C 188.000 182.911,187.460 182.541,186.800 182.200 C 186.140 181.859,185.600 181.669,185.600 181.779 M213.100 182.229 C 211.605 183.040,211.696 183.378,213.200 182.600 C 213.860 182.259,214.400 181.894,214.400 181.790 C 214.400 181.532,214.357 181.547,213.100 182.229 M188.400 183.379 C 188.400 183.489,188.940 183.859,189.600 184.200 C 190.260 184.541,190.800 184.731,190.800 184.621 C 190.800 184.511,190.260 184.141,189.600 183.800 C 188.940 183.459,188.400 183.269,188.400 183.379 M196.341 188.129 C 196.670 188.526,196.824 197.816,196.900 221.838 L 197.005 255.000 197.102 221.543 C 197.192 190.835,197.146 188.065,196.543 187.834 C 196.024 187.634,195.982 187.696,196.341 188.129 M203.280 188.080 C 202.914 188.446,202.800 196.447,202.800 221.651 L 202.800 254.742 205.223 256.214 C 206.556 257.024,207.738 257.595,207.849 257.484 C 207.960 257.373,206.960 256.682,205.626 255.949 L 203.200 254.615 203.200 221.588 C 203.200 196.433,203.314 188.446,203.680 188.080 C 203.944 187.816,204.070 187.600,203.960 187.600 C 203.850 187.600,203.544 187.816,203.280 188.080 M122.600 211.907 C 122.820 212.146,124.080 212.959,125.400 213.712 C 134.761 219.056,138.666 221.329,139.100 221.686 C 139.375 221.913,139.600 221.941,139.599 221.749 C 139.598 221.557,136.782 219.780,133.340 217.800 C 124.259 212.576,122.151 211.419,122.600 211.907 M260.880 221.280 C 260.514 221.646,260.400 229.564,260.400 254.480 C 260.400 272.476,260.301 287.200,260.180 287.200 C 260.059 287.200,259.384 286.921,258.680 286.580 L 257.400 285.960 258.365 286.797 C 260.710 288.830,260.590 290.478,260.702 254.633 C 260.775 231.241,260.932 221.722,261.251 221.338 C 261.805 220.671,261.532 220.628,260.880 221.280 M208.600 257.912 C 208.820 258.149,212.330 260.265,216.400 262.615 C 227.207 268.855,228.000 269.297,228.000 269.073 C 228.000 268.961,226.605 268.063,224.900 267.077 C 217.612 262.860,208.970 257.884,208.600 257.691 C 208.333 257.552,208.333 257.626,208.600 257.912 M228.600 269.512 C 228.820 269.749,230.080 270.557,231.400 271.308 C 241.019 276.780,253.321 283.888,254.915 284.894 C 255.969 285.559,256.922 286.012,257.033 285.900 C 257.144 285.789,250.882 282.049,243.118 277.590 C 227.280 268.494,228.051 268.923,228.600 269.512 M198.237 281.664 C 197.495 283.279,195.862 286.760,194.608 289.400 C 192.097 294.686,191.369 296.407,191.900 295.800 C 192.092 295.580,193.948 291.763,196.025 287.317 C 198.101 282.871,199.890 279.228,200.000 279.221 C 200.110 279.213,201.260 281.821,202.555 285.015 C 203.851 288.209,204.985 290.748,205.077 290.656 C 205.376 290.357,200.566 279.055,200.069 278.890 C 199.789 278.796,199.022 279.958,198.237 281.664 M205.313 291.700 C 207.024 296.020,207.730 297.603,207.877 297.456 C 208.089 297.244,205.618 291.200,205.320 291.200 C 205.207 291.200,205.204 291.425,205.313 291.700 M189.858 299.413 C 187.902 303.477,188.035 303.793,190.046 299.859 C 190.929 298.131,191.576 296.642,191.484 296.550 C 191.392 296.458,190.660 297.746,189.858 299.413 M208.128 298.400 C 208.607 300.012,213.337 311.196,213.479 311.054 C 213.667 310.866,209.399 300.300,208.529 298.800 C 208.210 298.250,208.029 298.070,208.128 298.400 M186.594 306.276 C 185.774 307.994,183.707 312.370,182.001 316.000 C 180.295 319.630,177.969 324.557,176.831 326.948 C 175.694 329.340,174.831 331.365,174.914 331.447 C 174.997 331.530,176.025 329.573,177.199 327.099 C 186.608 307.265,188.380 303.447,188.242 303.309 C 188.156 303.223,187.414 304.558,186.594 306.276 M213.713 312.100 C 215.424 316.420,216.130 318.003,216.277 317.856 C 216.489 317.644,214.018 311.600,213.720 311.600 C 213.607 311.600,213.604 311.825,213.713 312.100 M216.527 318.800 C 216.956 320.249,219.751 326.783,219.884 326.649 C 220.071 326.463,217.758 320.613,216.952 319.232 C 216.620 318.664,216.429 318.470,216.527 318.800 M220.100 327.600 C 221.267 330.825,228.158 347.176,228.292 347.041 C 228.389 346.944,227.809 345.275,227.002 343.332 C 226.195 341.390,224.442 337.100,223.105 333.800 C 221.769 330.500,220.497 327.620,220.279 327.400 C 220.016 327.135,219.955 327.202,220.100 327.600 M172.974 334.974 C 171.363 338.460,171.178 339.482,172.679 336.600 C 174.060 333.950,174.865 332.000,174.579 332.000 C 174.452 332.000,173.730 333.338,172.974 334.974 M14.451 335.337 C 14.388 337.242,15.828 344.442,16.612 346.143 C 16.931 346.834,17.108 347.040,17.007 346.600 C 16.905 346.160,16.442 344.193,15.978 342.228 C 15.515 340.263,14.993 337.563,14.819 336.228 C 14.570 334.325,14.490 334.132,14.451 335.337 M385.108 336.624 C 384.855 338.815,383.638 344.575,383.001 346.600 C 382.839 347.114,382.963 347.034,383.348 346.375 C 384.081 345.121,385.706 336.846,385.522 335.311 C 385.440 334.635,385.278 335.150,385.108 336.624 M341.267 338.876 C 339.846 341.351,337.493 343.707,334.405 345.749 C 331.917 347.394,332.000 347.706,334.529 346.215 C 337.591 344.410,343.482 337.748,342.704 336.970 C 342.584 336.851,341.937 337.708,341.267 338.876 M168.816 343.800 L 166.452 348.800 120.310 348.800 C 80.164 348.800,73.858 348.720,71.784 348.187 C 70.473 347.850,69.040 347.483,68.600 347.372 C 68.009 347.223,68.062 347.321,68.803 347.747 C 71.190 349.119,74.064 349.200,120.670 349.200 L 166.794 349.200 168.638 345.300 C 171.117 340.059,171.650 338.800,171.395 338.800 C 171.276 338.800,170.115 341.050,168.816 343.800 M328.800 348.028 C 326.419 348.685,323.831 348.748,298.100 348.773 C 267.994 348.802,269.399 348.698,270.600 350.800 C 271.267 351.967,271.367 351.692,270.810 350.226 L 270.420 349.200 297.936 349.200 C 325.450 349.200,328.852 349.055,331.197 347.778 C 332.461 347.090,332.045 347.133,328.800 348.028 M17.232 347.933 C 17.192 348.602,19.517 354.465,20.027 354.982 C 20.234 355.191,19.796 353.841,19.054 351.982 C 18.312 350.122,17.606 348.330,17.484 348.000 C 17.327 347.573,17.254 347.554,17.232 347.933 M228.552 348.000 C 228.846 349.083,236.405 367.338,236.655 367.572 C 237.063 367.953,236.382 365.998,234.714 362.000 C 233.842 359.910,232.495 356.670,231.721 354.800 C 230.207 351.144,228.285 347.018,228.552 348.000 M381.106 351.604 C 380.318 353.583,379.825 355.108,380.010 354.994 C 380.414 354.744,382.911 348.378,382.692 348.158 C 382.608 348.074,381.894 349.625,381.106 351.604 M271.600 353.018 C 271.600 353.566,274.502 360.432,274.665 360.269 C 274.808 360.125,272.097 353.164,271.770 352.837 C 271.677 352.743,271.600 352.825,271.600 353.018 M20.584 356.200 C 21.029 357.556,24.397 363.101,25.118 363.666 C 25.710 364.129,25.737 364.119,25.328 363.592 C 25.068 363.258,23.835 361.278,22.589 359.192 C 21.342 357.107,20.440 355.760,20.584 356.200 M378.016 358.117 C 377.274 359.482,376.132 361.410,375.478 362.400 C 374.744 363.511,374.600 363.894,375.102 363.400 C 376.058 362.459,379.798 356.065,379.542 355.809 C 379.445 355.712,378.759 356.751,378.016 358.117 M274.800 360.942 C 274.800 361.435,277.313 367.220,277.462 367.071 C 277.542 366.992,277.062 365.604,276.395 363.988 C 275.235 361.175,274.800 360.344,274.800 360.942 M25.933 365.000 C 27.483 368.166,36.156 376.467,41.800 380.184 C 46.450 383.247,55.676 387.657,56.245 387.088 C 56.324 387.009,55.086 386.445,53.494 385.833 C 43.582 382.027,35.681 376.094,27.071 365.994 C 26.230 365.007,25.718 364.560,25.933 365.000 M372.247 366.781 C 366.318 374.328,357.688 380.953,348.600 384.936 C 344.830 386.587,343.921 387.096,345.600 386.611 C 354.167 384.138,370.424 371.846,374.052 365.100 C 374.745 363.811,374.133 364.381,372.247 366.781 M277.852 368.365 C 278.240 369.904,279.229 372.104,279.438 371.895 C 279.544 371.790,279.175 370.735,278.619 369.552 C 278.063 368.368,277.718 367.834,277.852 368.365 M236.913 368.500 C 238.275 371.933,239.370 374.363,239.498 374.236 C 239.696 374.038,237.200 368.000,236.920 368.000 C 236.807 368.000,236.804 368.225,236.913 368.500 M279.600 372.607 C 279.600 372.788,280.738 375.600,284.665 385.115 C 285.236 386.499,285.779 387.554,285.873 387.460 C 286.023 387.311,285.014 384.753,280.919 374.900 C 279.989 372.662,279.600 371.986,279.600 372.607 M240.000 375.740 C 240.000 376.121,244.372 386.780,245.029 388.000 C 246.315 390.387,245.595 388.420,242.041 379.833 C 240.493 376.093,240.000 375.104,240.000 375.740 M57.253 387.606 C 58.006 388.046,62.707 389.200,63.600 389.164 C 64.210 389.140,57.733 387.243,57.000 387.231 C 56.780 387.227,56.894 387.396,57.253 387.606 M339.000 388.217 C 335.367 389.258,335.712 389.492,339.547 388.588 C 342.086 387.989,344.067 387.182,342.800 387.262 C 342.470 387.283,340.760 387.713,339.000 388.217 M286.016 388.074 C 286.007 388.225,286.176 388.810,286.390 389.374 L 286.780 390.400 308.290 390.370 C 320.121 390.354,330.610 390.219,331.600 390.070 C 332.590 389.922,323.017 389.857,310.327 389.926 L 287.253 390.053 286.643 388.926 C 286.307 388.307,286.025 387.923,286.016 388.074 M245.600 389.608 C 245.600 389.884,216.698 389.981,156.100 389.908 C 106.875 389.848,67.410 389.922,68.400 390.070 C 72.590 390.700,246.000 390.436,246.000 389.800 C 246.000 389.470,245.910 389.200,245.800 389.200 C 245.690 389.200,245.600 389.383,245.600 389.608 " stroke="none" fill="#cadbf3" fill-rule="evenodd"></path></g></svg>